<svg id="Layer_1" data-name="Layer 1" xmlns="http://www.w3.org/2000/svg" width="352.38" height="92.89" viewBox="0 0 352.38 92.89"><defs><style>.cls-1{fill:#231f20;}.cls-2{fill:#ffd600;}.cls-3{fill:#010101;}.cls-4{fill:#da1a32;}</style></defs><title>logo-ummc</title><path class="cls-1" d="M99.83,74.37c.1.9.28,2.31,1.35,2.66a5.43,5.43,0,0,0,1.63.23c.13,0,.2,0,.2.13s-.22.23-.52.23c-.55,0-3.27-.07-4.19-.15-.58,0-.7-.13-.7-.25s0-.15.17-.17.15-.45.1-.9L96.67,63.2H96.6L90.46,76.27c-.52,1.1-.6,1.34-.83,1.34s-.3-.25-.78-1.16c-.65-1.23-2.82-5.57-2.9-5.81s-3-6.47-3.31-7.14h-.1l-1,11.58v1.28a.8.8,0,0,0,.65.78,4.63,4.63,0,0,0,1,.13c.1,0,.2,0,.2.13s-.15.23-.45.23c-.93,0-2.13-.07-2.34-.07s-1.45.07-2.1.07c-.25,0-.42,0-.42-.23s.13-.13.25-.13a3.25,3.25,0,0,0,.75-.07c.83-.15.9-1.13,1-2.08l1.8-16.34c0-.28.13-.45.28-.45s.25.1.38.38l7.68,15.78,7.37-15.75c.1-.23.2-.41.38-.41s.25.2.3.68Z" transform="translate(-31.74)"/><path class="cls-1" d="M106.93,67.65V63.08c0-.68-.17-1.07-.9-1.18h-.75a.22.22,0,0,1-.17-.17c0-.13.1-.17.35-.17h7.82a4.46,4.46,0,0,0,1-.13,1.45,1.45,0,0,1,.3-.1c.07,0,.1.1.1.2a7.18,7.18,0,0,0-.17,1,14.13,14.13,0,0,1-.13,1.45c-.06.29-.1.23-.2.23s-.18-.13-.18-.29a2.35,2.35,0,0,0-.13-.75c-.15-.35-.38-.49-1.58-.65l-3.18-.07c-.28,0-.13.07-.13.23v5.8c0,.15,0,.23.13.23h3.69a1.4,1.4,0,0,0,1.07-.3c.22-.23.25-.28.32-.28s.13,0,.13.17a11.61,11.61,0,0,0-.17,1.18c0,.42-.1,1.23-.1,1.45s0,.41-.2.41-.15-.07-.15-.2a1.9,1.9,0,0,0-.1-.7c-.07-.3-.28-.55-1.13-.65-.6-.07-2.9-.1-3.34-.1-.13,0-.15.07-.15.15v5.24c0,1.45.45,1.7,2.63,1.7a7.26,7.26,0,0,0,2.21-.23,1.61,1.61,0,0,0,1-1.45c0-.25.1-.33.23-.33s.15.17.15.33a17.42,17.42,0,0,1-.3,2.06c-.15.55-.38.55-1.23.55-1.65,0-2.9,0-3.83-.07a14.59,14.59,0,0,0-1.83,0h-2.25c-.23,0-.35,0-.35-.17a.17.17,0,0,1,.17-.17h0a6.4,6.4,0,0,0,.68-.1c.42-.07.48-.49.58-1.13a43.09,43.09,0,0,0,.16-4.66Z" transform="translate(-31.74)"/><path class="cls-1" d="M120.75,67.65V63.08c0-.67-.17-1.07-.9-1.18h-.75a.22.22,0,0,1-.17-.17c0-.13.1-.17.35-.17h5.46c2.21,0,6.24-.2,8.85,2.44a7.49,7.49,0,0,1,2.15,5.41,8.53,8.53,0,0,1-2.38,6,8.87,8.87,0,0,1-6.69,2.45c-1,0-2.13-.07-3.09-.13l-1.8-.13h-2.25c-.23,0-.35,0-.35-.17a.17.17,0,0,1,.17-.17h0a3.15,3.15,0,0,0,.68-.1c.42-.1.48-.51.58-1.13a43.09,43.09,0,0,0,.13-4.62Zm2,2.31V74.6a4,4,0,0,0,.25,1.48c.28.41,1.06.86,3.66.86a7.4,7.4,0,0,0,5.17-1.86A7.17,7.17,0,0,0,133.54,70a7.39,7.39,0,0,0-2.08-5.34c-2.08-2.1-4.51-2.38-7.14-2.38a5.91,5.91,0,0,0-1.34.15.38.38,0,0,0-.28.42Z" transform="translate(-31.74)"/><path class="cls-1" d="M142.83,71.41c0,2.06,0,3.73.1,4.62.07.62.15,1,.8,1.13a8.58,8.58,0,0,0,1,.1.17.17,0,0,1,.17.17h0c0,.1-.1.17-.35.17-1.23,0-2.66-.07-2.76-.07s-1.45.07-2.18.07c-.23,0-.35,0-.35-.17a.17.17,0,0,1,.17-.17h0a3,3,0,0,0,.68-.1c.42-.1.51-.49.58-1.13.1-.87.13-2.55.13-4.62V63.08c0-.68-.22-1.06-.7-1.16a4,4,0,0,0-.8-.07.19.19,0,0,1-.17-.17c0-.13.1-.17.35-.17H144c.25,0,.35,0,.35.17a.22.22,0,0,1-.17.17,2.47,2.47,0,0,0-.55,0c-.6.13-.73.42-.78,1.18s0,1.28,0,4.59Z" transform="translate(-31.74)"/><path class="cls-1" d="M150.39,75.59a8,8,0,0,1-2.69-6.31,8.42,8.42,0,0,1,2.48-5.81,9.1,9.1,0,0,1,6.72-2.28,21.53,21.53,0,0,1,3.21.25,16,16,0,0,0,2.26.32c.22,0,.28.1.28.23a8.76,8.76,0,0,1-.1,1.2,15.12,15.12,0,0,0,0,2.18c0,.29-.13.45-.25.45s-.17-.15-.17-.45a2.77,2.77,0,0,0-.93-2.13,7.16,7.16,0,0,0-4.35-1.16,6.78,6.78,0,0,0-5,1.45,7,7,0,0,0-2,5.56,7.75,7.75,0,0,0,7.78,7.72h.18a4.67,4.67,0,0,0,3.64-1,4,4,0,0,0,.86-1.79c0-.23.07-.3.23-.3s.2.15.2.3a22.28,22.28,0,0,1-.52,2.73c-.13.41-.17.48-.55.62a13.06,13.06,0,0,1-4,.48,10.41,10.41,0,0,1-7.26-2.28" transform="translate(-31.74)"/><path class="cls-1" d="M171.28,61.9c.28-.7.38-.83.52-.83s.3.3.52.77c.41.9,3.93,9.71,5.3,13,.8,1.9,1.45,2.18,1.89,2.34a3.08,3.08,0,0,0,.87.13c.13,0,.28,0,.28.17s-.25.17-.51.17h-3.48c-.42,0-.77,0-.77-.15s0-.1.15-.15a.39.39,0,0,0,.24-.5h0v-.08l-2-4.89c0-.1-.07-.13-.2-.13H169a.23.23,0,0,0-.23.17l-1.25,3.41a4.35,4.35,0,0,0-.32,1.45c0,.42.38.58.75.58h.2c.17,0,.23.07.23.17s-.13.17-.32.17c-.52,0-1.73-.07-2-.07s-1.34.07-2.24.07c-.28,0-.42,0-.42-.17a.2.2,0,0,1,.2-.17h.65c1-.13,1.45-.87,1.86-2Zm2.45,8.88c.1,0,.1,0,.07-.15l-2.18-5.81c-.13-.32-.25-.32-.38,0l-2.06,5.81c0,.1,0,.15.07.15Z" transform="translate(-31.74)"/><path class="cls-1" d="M185.63,71.46c0,3.14,0,4.35.45,4.79s1.2.51,2.9.51c1.15,0,2.13,0,2.66-.65a2.6,2.6,0,0,0,.52-1.2.26.26,0,0,1,.23-.28c.13,0,.15.1.15.32a13.36,13.36,0,0,1-.32,2.13c-.15.49-.23.58-1.45.58-1.58,0-2.8,0-3.83-.07h-4.59c-.23,0-.35,0-.35-.17a.17.17,0,0,1,.17-.17h0a3.15,3.15,0,0,0,.68-.1c.42-.1.48-.49.58-1.13a43.75,43.75,0,0,0,.13-4.62V63.08c0-.67-.17-1.07-.9-1.18h-.75a.22.22,0,0,1-.17-.17c0-.13.1-.17.35-.17H187c.23,0,.35,0,.35.17a.19.19,0,0,1-.17.15h-.73c-.65.13-.78.45-.83,1.2s0,1.28,0,4.59Z" transform="translate(-31.74)"/><path class="cls-1" d="M204,75.24a9.61,9.61,0,0,1-3-7.42A10,10,0,0,1,203.8,61a10.16,10.16,0,0,1,7.65-2.69,21.44,21.44,0,0,1,3.63.3,21.54,21.54,0,0,0,2.55.38c.28,0,.32.13.32.28s-.07.51-.13,1.45,0,2.21-.07,2.58-.07.52-.23.52-.2-.17-.2-.52a3.47,3.47,0,0,0-1-2.6,8.35,8.35,0,0,0-5-1.45c-3.34,0-4.89,1-5.81,1.83a8.39,8.39,0,0,0-2.24,6.58,9.06,9.06,0,0,0,8.94,9.17h.12a5.81,5.81,0,0,0,4.35-1.25,4.76,4.76,0,0,0,.93-2.1c0-.28.1-.38.25-.38s.17.17.17.38a25.91,25.91,0,0,1-.55,3.21c-.15.48-.2.52-.65.73a14.52,14.52,0,0,1-4.51.58A11.61,11.61,0,0,1,204,75.24" transform="translate(-31.74)"/><path class="cls-1" d="M223.39,67.65V63.08c0-.68-.17-1.07-.9-1.18h-.75a.22.22,0,0,1-.17-.17c0-.13.1-.17.35-.17h7.82a4.46,4.46,0,0,0,1-.13,1.45,1.45,0,0,1,.3-.1c.07,0,.1.1.1.2a7.18,7.18,0,0,0-.17,1,14.13,14.13,0,0,1-.13,1.45c-.06.29-.1.23-.2.23s-.17-.1-.17-.28a2.35,2.35,0,0,0-.13-.75c-.15-.35-.38-.49-1.58-.65l-3.18-.07c-.28,0-.13.07-.13.23v5.79c0,.15,0,.23.13.23h3.69a1.4,1.4,0,0,0,1.07-.3c.22-.23.25-.28.32-.28s.13,0,.13.17a11.61,11.61,0,0,0-.17,1.18c0,.42-.1,1.23-.1,1.45s0,.41-.2.41-.15-.07-.15-.2a1.87,1.87,0,0,0-.1-.7c-.07-.3-.28-.55-1.13-.65-.6-.07-2.9-.1-3.34-.1-.13,0-.15.07-.15.15v5.24c0,1.45.45,1.7,2.63,1.7a7.33,7.33,0,0,0,2.21-.23,1.61,1.61,0,0,0,1-1.45c0-.25.1-.33.23-.33s.15.17.15.33a17.42,17.42,0,0,1-.3,2.06c-.15.55-.38.55-1.23.55-1.65,0-2.9,0-3.83-.07a14.59,14.59,0,0,0-1.83,0h-2.24c-.22,0-.35,0-.35-.17a.17.17,0,0,1,.17-.17,6.4,6.4,0,0,0,.68-.1c.42-.07.48-.49.58-1.13a43.75,43.75,0,0,0,.13-4.62Z" transform="translate(-31.74)"/><path class="cls-1" d="M238.13,74.69c0,1.76.25,2.28.86,2.44a5.27,5.27,0,0,0,1.1.13.17.17,0,0,1,.17.17c0,.13-.15.17-.41.17-1.25,0-2.13-.07-2.34-.07s-1.13.07-2.13.07c-.22,0-.35,0-.35-.17a.17.17,0,0,1,.17-.17,3.51,3.51,0,0,0,.9-.13c.55-.15.62-.73.62-2.66V62.25c0-.86.13-1.07.3-1.07s.62.42.86.65,3.56,3.76,7,7.26c2.18,2.25,4.54,4.79,5.21,5.49l-.22-10.71c0-1.45-.15-1.86-.83-2a7.13,7.13,0,0,0-1.07-.1.18.18,0,0,1-.17-.19h0c0-.07.17-.15.42-.15h4.19c.22,0,.41,0,.41.15a.25.25,0,0,1-.25.2,2.51,2.51,0,0,0-.52,0c-.73.15-.77.58-.77,1.86V76.08c0,1.45,0,1.52-.17,1.52s-.45-.17-1.68-1.31c-.23-.2-3.41-3.34-5.81-5.81-2.55-2.69-5-5.3-5.72-6Z" transform="translate(-31.74)"/><path class="cls-1" d="M262.91,71.41c0,2.06,0,3.73.1,4.62.07.62.17,1,.86,1.13a8.1,8.1,0,0,0,1,.1.16.16,0,0,1,.17.17c0,.1-.1.17-.35.17-1.2,0-2.61-.07-2.73-.07s-1.63.07-2.28.07c-.25,0-.35,0-.35-.17s0-.15.17-.15a2.9,2.9,0,0,0,.65-.1c.45-.1.58-.52.65-1.15.1-.87.1-2.55.1-4.62v-9h-3.19c-1.38,0-1.9.17-2.24.68a3.37,3.37,0,0,0-.35.68c0,.17-.13.2-.23.2a.17.17,0,0,1-.15-.17c0-.23.45-2.13.48-2.31s.15-.41.23-.41a7.59,7.59,0,0,0,1,.25c.62.07,1.45.1,1.73.1h8.33a11,11,0,0,0,1.58-.1,3.57,3.57,0,0,0,.62-.1c.1,0,.1.13.1.25,0,.65-.07,2.18-.07,2.42s-.1.28-.2.28-.15-.07-.17-.38v-.23c-.07-.65-.55-1.13-2.66-1.18H263Z" transform="translate(-31.74)"/><path class="cls-1" d="M273.39,67.65V63.08c0-.68-.17-1.07-.9-1.18h-.75a.22.22,0,0,1-.17-.17c0-.13.1-.17.35-.17h7.82a4.46,4.46,0,0,0,1-.13,1.45,1.45,0,0,1,.3-.1c.07,0,.1.1.1.2a7.18,7.18,0,0,0-.17,1,14.13,14.13,0,0,1-.13,1.45c-.06.29-.1.23-.2.23s-.17-.1-.17-.28a2.35,2.35,0,0,0-.13-.75c-.15-.35-.38-.49-1.58-.65l-3.18-.07c-.28,0-.13.07-.13.23v5.79c0,.15,0,.23.13.23h3.69a1.4,1.4,0,0,0,1.07-.3c.22-.23.25-.28.32-.28s.13,0,.13.17a11.61,11.61,0,0,0-.17,1.18c0,.42-.1,1.23-.1,1.45s0,.41-.2.41-.15-.07-.15-.2a1.87,1.87,0,0,0-.1-.7c-.07-.3-.28-.55-1.13-.65-.6-.07-2.9-.1-3.34-.1-.13,0-.15.07-.15.15v5.24c0,1.45.45,1.7,2.63,1.7a7.26,7.26,0,0,0,2.21-.23,1.61,1.61,0,0,0,1-1.45c0-.25.1-.33.23-.33s.15.17.15.33a17.77,17.77,0,0,1-.3,2.06c-.15.55-.38.55-1.23.55-1.65,0-2.9,0-3.83-.07a14.59,14.59,0,0,0-1.83,0h-2.24c-.22,0-.35,0-.35-.17a.17.17,0,0,1,.17-.17,6.4,6.4,0,0,0,.68-.1c.42-.07.48-.49.58-1.13a43.75,43.75,0,0,0,.13-4.62Z" transform="translate(-31.74)"/><path class="cls-1" d="M287.22,67.65V63.08c0-.68-.17-1.07-.9-1.18h-.75a.22.22,0,0,1-.17-.17c0-.13.1-.17.35-.17h5.37a7.26,7.26,0,0,1,4.11.93,3.73,3.73,0,0,1,1.52,2.9A6.23,6.23,0,0,1,294,70.24c1.8,2.25,3.34,4.19,4.62,5.52a4.17,4.17,0,0,0,3.24,1.55.19.19,0,0,1,.2.17h0c0,.13-.13.17-.52.17h-1.38a4.47,4.47,0,0,1-2.35-.42A11.28,11.28,0,0,1,294.75,74c-.93-1.16-1.9-2.53-2.38-3.11a.33.33,0,0,0-.3-.13h-2.82c-.1,0-.15,0-.15.17v.49c0,2.06,0,3.72.1,4.59.07.62.2,1,.87,1.13a8.14,8.14,0,0,0,1,.1.16.16,0,0,1,.17.15.16.16,0,0,1,0,0c0,.1-.1.17-.35.17-1.2,0-2.61-.07-2.71-.07s-1.45.07-2.18.07c-.23,0-.35,0-.35-.17a.17.17,0,0,1,.17-.17,3.19,3.19,0,0,0,.68-.1c.42-.1.48-.51.58-1.13a43.13,43.13,0,0,0,.13-4.62Zm1.9,1.8a.32.32,0,0,0,.15.28,7.52,7.52,0,0,0,2.44.32,2.9,2.9,0,0,0,1.65-.38,3.8,3.8,0,0,0,1.34-3.27c0-2.66-1.45-4.19-3.82-4.19a9.7,9.7,0,0,0-1.58.13.28.28,0,0,0-.17.25Z" transform="translate(-31.74)"/><path class="cls-1" d="M79.34,42.7V37.24a1.25,1.25,0,0,0-1.09-1.45,4.78,4.78,0,0,0-.86-.07c-.1,0-.2,0-.2-.15s.13-.2.41-.2c1.13,0,2.67.07,2.9.07s1.74-.07,2.5-.07c.28,0,.41,0,.41.2s-.1.15-.2.15a3.8,3.8,0,0,0-.62.07c-.68.1-.89.55-.93,1.45s0,1.45,0,5.46v3.54c0,3.64.81,5.2,1.9,6.24a4.94,4.94,0,0,0,3.82,1.45,5.3,5.3,0,0,0,4-1.81,9.81,9.81,0,0,0,1.45-6.18v-8.7a1.25,1.25,0,0,0-1.09-1.45,4.78,4.78,0,0,0-.86-.07c-.1,0-.2,0-.2-.15s.13-.2.41-.2c1.13,0,2.53.07,2.67.07s1.36-.07,2.12-.07c.28,0,.41,0,.41.2s-.1.15-.2.15a3.8,3.8,0,0,0-.62.07c-.68.15-.89.55-.93,1.45s0,1.45,0,5.46v2.7c0,2.73-.3,5.81-2.32,7.55A7.4,7.4,0,0,1,87,54.82,7.75,7.75,0,0,1,81.8,53c-1.23-1.19-2.19-2.9-2.19-6.65Z" transform="translate(-31.74)"/><path class="cls-1" d="M99.83,51.54c0,1.77.25,2.29.86,2.45a5.24,5.24,0,0,0,1.12.13.17.17,0,0,1,.17.17h0c0,.13-.15.17-.41.17-1.26,0-2.15-.07-2.35-.07s-1.13.07-2.15.07c-.23,0-.35,0-.35-.17a.17.17,0,0,1,.12-.21h.06a3.47,3.47,0,0,0,.91-.13c.55-.15.62-.73.62-2.69V39c0-.86.13-1.09.3-1.09s.62.44.86.65,3.59,3.79,7,7.26c2.19,2.28,4.57,4.82,5.25,5.53l-.22-10.73c0-1.45-.16-1.87-.83-2a7.26,7.26,0,0,0-1.09-.1.18.18,0,0,1-.17-.19h0c0-.07.17-.15.44-.15h4.22c.23,0,.41,0,.41.15a.25.25,0,0,1-.25.2,2.54,2.54,0,0,0-.52,0c-.74.15-.78.58-.78,1.87V53c0,1.45,0,1.54-.17,1.54s-.45-.17-1.68-1.31c-.23-.2-3.44-3.35-5.81-5.81l-5.81-6.08Z" transform="translate(-31.74)"/><path class="cls-1" d="M121.46,48.23c0,2.08,0,3.76.1,4.64.07.62.15,1,.81,1.13a9.2,9.2,0,0,0,1,.1.17.17,0,0,1,.17.17h0c0,.1-.1.17-.35.17-1.23,0-2.69-.07-2.79-.07s-1.45.07-2.19.07c-.23,0-.35,0-.35-.17a.17.17,0,0,1,.17-.17h0a3.21,3.21,0,0,0,.68-.1c.44-.1.51-.51.58-1.13.1-.89.13-2.58.13-4.64v-8.4c0-.67-.23-1.06-.71-1.16a3.88,3.88,0,0,0-.68-.07.19.19,0,0,1-.17-.17c0-.13.1-.17.35-.17h4.47c.25,0,.35,0,.35.17a.22.22,0,0,1-.17.17,2.42,2.42,0,0,0-.55,0c-.61.13-.73.44-.78,1.19s0,1.29,0,4.62Z" transform="translate(-31.74)"/><path class="cls-1" d="M134.13,51.66c1.29-2.9,4.19-10.16,4.67-11.74a3.66,3.66,0,0,0,.2-.84.45.45,0,0,0-.3-.45,2.61,2.61,0,0,0-.75-.07c-.13,0-.26-.07-.26-.17s.16-.17.51-.17h3.92c.23,0,.35,0,.35.15s-.07.2-.25.2a2.08,2.08,0,0,0-1.06.25c-.3.2-.65.51-1.23,2-.25.61-1.34,3.18-2.48,5.81-1.36,3.14-2.35,5.46-2.9,6.52-.61,1.29-.73,1.61-1,1.61s-.41-.28-.83-1.31L127.3,40.26c-.51-1.2-.81-1.45-1.54-1.61a4.35,4.35,0,0,0-.86-.07.19.19,0,0,1-.17-.2h0c0-.13.23-.15.58-.15H130c.41,0,.61,0,.61.15a.2.2,0,0,1-.19.21h0a2.7,2.7,0,0,0-.81.1.35.35,0,0,0-.25.38,8.93,8.93,0,0,0,.61,1.79Z" transform="translate(-31.74)"/><path class="cls-1" d="M145.76,44.44V39.83c0-.68-.17-1.09-.91-1.19h-.75a.22.22,0,0,1-.17-.17c0-.13.1-.17.35-.17h7.88a4.94,4.94,0,0,0,1-.13c.19,0,.2-.1.3-.1s.1.1.1.2a7.14,7.14,0,0,0-.17,1,14.13,14.13,0,0,1-.13,1.45c-.06.29-.1.23-.2.23s-.17-.1-.17-.28a2.34,2.34,0,0,0-.13-.75c-.15-.35-.38-.51-1.6-.65L148,39.2c-.3,0-.13.07-.13.23v5.81c0,.15,0,.23.13.23h3.72a1.46,1.46,0,0,0,1.09-.3c.23-.23.25-.28.33-.28s.13,0,.13.17a11.61,11.61,0,0,0-.17,1.19c0,.44-.1,1.23-.1,1.45s0,.41-.2.41-.15-.07-.15-.2a1.9,1.9,0,0,0-.1-.71c-.07-.3-.28-.55-1.13-.65-.61-.07-3-.1-3.35-.1a.13.13,0,0,0-.15.15v5.48c0,1.45.45,1.71,2.66,1.71a7.43,7.43,0,0,0,2.22-.23,1.63,1.63,0,0,0,1-1.45c0-.25.1-.33.23-.33s.15.17.15.33a17.75,17.75,0,0,1-.3,2.08c-.15.55-.38.55-1.23.55-1.67,0-2.9,0-3.86-.07a14.79,14.79,0,0,0-1.84,0H144.7c-.23,0-.35,0-.35-.17a.17.17,0,0,1,.17-.17h0a6.37,6.37,0,0,0,.68-.1c.44-.07.48-.51.58-1.13a43.75,43.75,0,0,0,.13-4.64Z" transform="translate(-31.74)"/><path class="cls-1" d="M157.65,44.44V39.83c0-.68-.17-1.09-.91-1.19H156a.22.22,0,0,1-.17-.17c0-.13.1-.17.35-.17h5.4a7.26,7.26,0,0,1,4.14.93,3.76,3.76,0,0,1,1.54,2.9A6.27,6.27,0,0,1,164.53,47c1.81,2.28,3.35,4.22,4.64,5.56a4.21,4.21,0,0,0,3.25,1.57.2.2,0,0,1,.2.17c0,.13-.13.17-.54.17h-1.45a4.46,4.46,0,0,1-2.38-.44,11.32,11.32,0,0,1-3-3.15c-.93-1.16-1.92-2.55-2.39-3.14a.35.35,0,0,0-.3-.13h-2.83c-.1,0-.15,0-.15.17v.51c0,2.08,0,3.73.1,4.62.07.62.2,1,.89,1.13a8.22,8.22,0,0,0,1,.1.16.16,0,0,1,.17.17c0,.1-.1.17-.35.17-1.2,0-2.63-.07-2.73-.07s-1.45.07-2.19.07c-.23,0-.35,0-.35-.17a.17.17,0,0,1,.17-.17h0a3.21,3.21,0,0,0,.68-.1c.44-.1.48-.51.58-1.13a43.78,43.78,0,0,0,.13-4.64Zm1.92,1.81a.32.32,0,0,0,.15.28,7.55,7.55,0,0,0,2.45.33,2.9,2.9,0,0,0,1.67-.38,3.83,3.83,0,0,0,1.34-3.28c0-2.67-1.45-4.22-3.83-4.22a9.57,9.57,0,0,0-1.6.13.28.28,0,0,0-.17.25Z" transform="translate(-31.74)"/><path class="cls-1" d="M172,54.17c-.3-.15-.33-.23-.33-.81,0-1.06.1-1.92.13-2.28s0-.35.17-.35.2.07.2.25a3.18,3.18,0,0,0,.07.78,3.27,3.27,0,0,0,3.51,2.12c2.19,0,3.34-1.23,3.34-2.9s-.83-2.28-2.8-3.73l-1-.75c-2.39-1.79-3.18-3.11-3.18-4.6,0-2.53,2-4,4.92-4a10.76,10.76,0,0,1,2.31.25,2.9,2.9,0,0,0,.78.1c.17,0,.23,0,.23.15a22.67,22.67,0,0,0-.1,2.28c0,.33,0,.48-.17.48s-.17-.1-.2-.28a4,4,0,0,0-.33-1.06c-.15-.25-.89-1.06-2.9-1.06-1.61,0-2.9.81-2.9,2.32s.68,2.15,2.9,3.64l.64.44c2.7,1.84,3.64,3.34,3.64,5.18A4.18,4.18,0,0,1,178.85,54a6.81,6.81,0,0,1-3.54.75,8.16,8.16,0,0,1-3.24-.58" transform="translate(-31.74)"/><path class="cls-1" d="M187.13,48.23c0,2.08,0,3.76.1,4.64.07.62.15,1,.81,1.13a9.2,9.2,0,0,0,1,.1.17.17,0,0,1,.17.17c0,.1-.1.17-.35.17-1.23,0-2.67-.07-2.77-.07s-1.45.07-2.19.07c-.23,0-.35,0-.35-.17a.17.17,0,0,1,.17-.17h0a3.24,3.24,0,0,0,.68-.1c.42-.1.51-.51.58-1.13.1-.89.13-2.58.13-4.64v-8.4c0-.67-.23-1.06-.71-1.16a3.86,3.86,0,0,0-.68-.07.19.19,0,0,1-.17-.17c0-.13.1-.17.35-.17h4.47c.25,0,.35,0,.35.17a.22.22,0,0,1-.17.17,2.41,2.41,0,0,0-.55,0c-.61.13-.73.44-.78,1.19s0,1.29,0,4.62Z" transform="translate(-31.74)"/><path class="cls-1" d="M199.28,48.23c0,2.08,0,3.76.1,4.64.07.62.17,1,.86,1.13a8.59,8.59,0,0,0,1,.1.16.16,0,0,1,.17.17c0,.1-.1.17-.35.17-1.22,0-2.63-.07-2.76-.07s-1.64.07-2.29.07c-.25,0-.35,0-.35-.17s0-.15.17-.15a3,3,0,0,0,.65-.1c.45-.1.58-.54.65-1.16.1-.89.1-2.58.1-4.64v-9H194c-1.45,0-1.92.17-2.25.68a3.45,3.45,0,0,0-.35.68c0,.17-.13.2-.23.2a.17.17,0,0,1-.15-.17c0-.23.45-2.15.48-2.32s.16-.41.23-.41a7.78,7.78,0,0,0,1,.25c.62.07,1.45.1,1.74.1h8.39a10.84,10.84,0,0,0,1.6-.1,3.09,3.09,0,0,0,.62-.1c.09,0,.1.13.1.25,0,.65-.07,2.21-.07,2.45s-.1.28-.2.28-.15-.07-.17-.38V40.4c-.07-.65-.55-1.13-2.69-1.19H199.3Z" transform="translate(-31.74)"/><path class="cls-1" d="M213.88,48.88a3.83,3.83,0,0,0-.48-2.19c-.17-.33-3.18-5.09-3.93-6.24A5.57,5.57,0,0,0,208,38.88a2.19,2.19,0,0,0-.93-.3.22.22,0,0,1-.23-.2h0c0-.1.07-.16.28-.16h4.11c.25,0,.3,0,.3.16s-.16.15-.35.23-.28.17-.28.35a1.76,1.76,0,0,0,.3.83l4,6.66c.45-.91,3.24-5.5,3.64-6.21a2.29,2.29,0,0,0,.38-1.12c0-.3-.1-.48-.35-.55s-.33-.15-.33-.25.13-.13.35-.13h3.72c.16,0,.28,0,.28.13a.26.26,0,0,1-.28.23,2.25,2.25,0,0,0-1,.28,3.8,3.8,0,0,0-1.12,1.06c-.73.86-3.86,5.91-4.35,6.82a4.35,4.35,0,0,0-.28,2.15V50.7c0,.35,0,1.26.07,2.15,0,.64.2,1,.86,1.13a8.26,8.26,0,0,0,1,.1.17.17,0,0,1,.17.17c0,.1-.13.17-.35.17-1.23,0-2.67-.07-2.8-.07s-1.45.07-2.18.07c-.25,0-.35,0-.35-.17a.17.17,0,0,1,.17-.17,2.9,2.9,0,0,0,.65-.1c.45-.1.61-.51.65-1.13V50.7Z" transform="translate(-31.74)"/><path class="cls-1" d="M268.3,51.24c.1.9.28,2.31,1.35,2.66a5.43,5.43,0,0,0,1.63.23c.13,0,.2,0,.2.13s-.23.23-.52.23c-.55,0-3.27-.07-4.18-.15-.58,0-.7-.13-.7-.25s0-.15.17-.17.15-.45.1-.9l-1.2-12.94h-.07l-6.14,13.06c-.52,1.1-.6,1.34-.83,1.34s-.3-.25-.77-1.16c-.65-1.23-2.82-5.57-2.9-5.81s-3-6.47-3.31-7.14H251L250,52v1.28a.8.8,0,0,0,.65.78,4.63,4.63,0,0,0,1,.13c.1,0,.2,0,.2.13s-.15.23-.45.23c-.93,0-2.13-.07-2.34-.07s-1.45.07-2.1.07c-.25,0-.42,0-.42-.23s.13-.13.25-.13a3.24,3.24,0,0,0,.75-.07c.83-.15.9-1.13,1-2.08l1.8-16.34c0-.28.13-.45.28-.45s.25.1.38.38l7.68,15.78L266,35.63c.1-.23.2-.41.38-.41s.25.2.3.68Z" transform="translate(-31.74)"/><path class="cls-1" d="M279.31,38.77c.28-.7.38-.83.52-.83s.3.3.52.78c.41.9,3.93,9.7,5.3,12.93.8,1.9,1.45,2.18,1.87,2.34a3.08,3.08,0,0,0,.87.13c.13,0,.28,0,.28.17s-.25.17-.51.17h-3.48c-.42,0-.77,0-.77-.15s0-.1.15-.15a.39.39,0,0,0,.24-.5h0v-.08l-2-4.89c0-.1-.07-.13-.2-.13H277a.23.23,0,0,0-.23.17l-1.25,3.41a4.46,4.46,0,0,0-.32,1.45c0,.42.38.58.75.58h.2c.17,0,.23.07.23.17s-.13.17-.32.17c-.52,0-1.73-.07-2-.07s-1.34.07-2.24.07c-.28,0-.42,0-.42-.17a.2.2,0,0,1,.2-.17h.65c1-.13,1.45-.87,1.86-2Zm2.45,8.88c.1,0,.1,0,.07-.15l-2.18-5.81q-.19-.49-.38,0l-2.06,5.81c0,.1,0,.15.07.15Z" transform="translate(-31.74)"/><path class="cls-1" d="M290.61,44.52V39.93c0-.68-.17-1.07-.9-1.18H289a.22.22,0,0,1-.17-.17c0-.13.1-.17.35-.17h5.37a7.26,7.26,0,0,1,4.11.93,3.74,3.74,0,0,1,1.52,2.9,6.23,6.23,0,0,1-2.77,4.84c1.8,2.25,3.34,4.19,4.62,5.52a4.08,4.08,0,0,0,3.22,1.55.19.19,0,0,1,.2.17h0c0,.13-.13.17-.52.17h-1.38a4.44,4.44,0,0,1-2.35-.41,11.25,11.25,0,0,1-3-3.14c-.93-1.15-1.9-2.53-2.38-3.11a.33.33,0,0,0-.3-.13H292.7c-.1,0-.15,0-.15.17v.49c0,2.06,0,3.72.1,4.59.07.62.2,1,.87,1.13a7.77,7.77,0,0,0,1,.1.16.16,0,0,1,.17.15.16.16,0,0,1,0,0c0,.1-.1.17-.35.17-1.2,0-2.61-.07-2.71-.07s-1.45.07-2.18.07c-.23,0-.35,0-.35-.17a.17.17,0,0,1,.17-.17h0a3.08,3.08,0,0,0,.68-.1c.42-.1.48-.49.58-1.13a43.13,43.13,0,0,0,.13-4.62Zm1.9,1.8a.32.32,0,0,0,.15.28,7.52,7.52,0,0,0,2.44.32,2.9,2.9,0,0,0,1.65-.38,3.8,3.8,0,0,0,1.34-3.27c0-2.66-1.45-4.18-3.82-4.18a9.68,9.68,0,0,0-1.58.13.28.28,0,0,0-.17.25Z" transform="translate(-31.74)"/><path class="cls-1" d="M309,48.93a3.8,3.8,0,0,0-.48-2.18c-.17-.32-3.16-5.07-3.9-6.2A5.52,5.52,0,0,0,303.17,39a2.16,2.16,0,0,0-.93-.3.22.22,0,0,1-.23-.2h0c0-.1.07-.15.28-.15h4.08c.25,0,.3,0,.3.15s-.15.15-.35.23a.36.36,0,0,0-.32.35,1.76,1.76,0,0,0,.3.83l4,6.65c.45-.9,3.21-5.47,3.61-6.17a2.29,2.29,0,0,0,.38-1.1c0-.3-.1-.48-.35-.55s-.32-.15-.32-.25.13-.13.35-.13h3.69c.15,0,.28,0,.28.13a.26.26,0,0,1-.28.23,2.26,2.26,0,0,0-1,.28,3.83,3.83,0,0,0-1.1,1.06c-.73.86-3.83,5.81-4.35,6.76a4.27,4.27,0,0,0-.28,2.13v1.86c0,.35,0,1.25.07,2.13,0,.62.2,1,.86,1.13a8.17,8.17,0,0,0,1,.1.17.17,0,0,1,.17.17h0c0,.1-.13.17-.35.17-1.23,0-2.66-.07-2.79-.07s-1.45.07-2.16.07c-.25,0-.35,0-.35-.17a.17.17,0,0,1,.17-.17h0a2.82,2.82,0,0,0,.65-.1c.45-.1.6-.49.65-1.13V50.8Z" transform="translate(-31.74)"/><path class="cls-1" d="M323,48.32c0,3.14,0,4.35.45,4.79s1.2.51,2.9.51c1.16,0,2.13,0,2.66-.65a2.6,2.6,0,0,0,.52-1.2.26.26,0,0,1,.23-.28c.13,0,.15.1.15.32a13.36,13.36,0,0,1-.32,2.13c-.15.49-.23.58-1.45.58-1.58,0-2.8,0-3.83-.07h-4.59c-.23,0-.35,0-.35-.17a.17.17,0,0,1,.17-.17h0a3.15,3.15,0,0,0,.68-.1c.42-.1.48-.49.58-1.13a43.08,43.08,0,0,0,.13-4.62V39.93c0-.67-.17-1.07-.9-1.18h-.75a.22.22,0,0,1-.17-.17c0-.13.1-.17.35-.17h4.94c.23,0,.35,0,.35.17s-.1.15-.17.15h-.73c-.65.13-.77.45-.83,1.2s0,1.28,0,4.59Z" transform="translate(-31.74)"/><path class="cls-1" d="M338.46,38.77c.28-.7.38-.83.52-.83s.3.3.52.78c.41.9,3.93,9.7,5.3,12.93.8,1.9,1.45,2.18,1.89,2.34a3.08,3.08,0,0,0,.87.13c.13,0,.28,0,.28.17s-.25.17-.51.17h-3.48c-.42,0-.77,0-.77-.15s0-.1.15-.15a.39.39,0,0,0,.24-.5h0v-.08l-2-4.89c0-.1-.07-.13-.2-.13h-5.09a.23.23,0,0,0-.23.17l-1.25,3.41a4.35,4.35,0,0,0-.32,1.45c0,.42.38.58.75.58h.19c.17,0,.22.07.22.17s-.13.17-.32.17c-.52,0-1.73-.07-2-.07s-1.34.07-2.24.07c-.28,0-.42,0-.42-.17a.19.19,0,0,1,.2-.17h.65c1-.13,1.45-.87,1.86-2Zm2.45,8.88c.1,0,.1,0,.07-.15l-2.18-5.81c-.13-.32-.25-.32-.38,0l-2.06,5.81c0,.1,0,.15.07.15Z" transform="translate(-31.74)"/><path class="cls-1" d="M351.67,51.56c0,1.76.25,2.28.86,2.44a5.28,5.28,0,0,0,1.1.13.17.17,0,0,1,.17.17h0c0,.13-.15.17-.41.17-1.26,0-2.13-.07-2.34-.07s-1.13.07-2.13.07c-.23,0-.35,0-.35-.17a.17.17,0,0,1,.17-.17h0a3.48,3.48,0,0,0,.9-.13c.55-.15.62-.73.62-2.66V39.19c0-.86.13-1.07.3-1.07s.62.42.86.65,3.56,3.76,7,7.26c2.18,2.25,4.54,4.79,5.21,5.49l-.23-10.68c0-1.45-.15-1.86-.83-2a7.08,7.08,0,0,0-1.07-.1.18.18,0,0,1-.17-.19h0c0-.07.17-.15.42-.15h4.19c.23,0,.41,0,.41.15a.25.25,0,0,1-.25.2,2.51,2.51,0,0,0-.52,0c-.73.15-.77.58-.77,1.86V53.08c0,1.45,0,1.52-.17,1.52s-.45-.17-1.68-1.31c-.23-.2-3.41-3.34-5.81-5.81-2.55-2.69-5-5.3-5.72-6Z" transform="translate(-31.74)"/><path class="cls-1" d="M369.13,44.52V39.93c0-.67-.17-1.07-.9-1.18h-.75a.22.22,0,0,1-.17-.17c0-.13.1-.17.35-.17h5.46c2.21,0,6.24-.2,8.85,2.44a7.49,7.49,0,0,1,2.15,5.41,8.53,8.53,0,0,1-2.37,6,8.87,8.87,0,0,1-6.69,2.45c-1,0-2.13-.07-3.09-.13l-1.83-.19H367.9c-.23,0-.35,0-.35-.17a.17.17,0,0,1,.17-.17h0a3.19,3.19,0,0,0,.68-.1c.42-.1.48-.51.58-1.13a43.09,43.09,0,0,0,.13-4.62Zm2,2.31v4.64a4,4,0,0,0,.25,1.52c.28.41,1.06.86,3.66.86a7.4,7.4,0,0,0,5.25-2A7.26,7.26,0,0,0,382,46.84a7.39,7.39,0,0,0-2.08-5.34c-2.08-2.1-4.51-2.38-7.14-2.38a5.89,5.89,0,0,0-1.34.15.38.38,0,0,0-.28.42Z" transform="translate(-31.74)"/><path class="cls-1" d="M233.84,46.53a6,6,0,0,1-.77,2.9,5.81,5.81,0,0,1-2.13,2.25,5.14,5.14,0,0,1-2.66.83,2.86,2.86,0,0,1-3-3,5.68,5.68,0,0,1,.81-2.9,6.15,6.15,0,0,1,2.18-2.25,5.08,5.08,0,0,1,2.63-.83,2.82,2.82,0,0,1,2.09.84,2.9,2.9,0,0,1,.83,2.18m-1.6-.67a2,2,0,0,0-.44-1.38,1.45,1.45,0,0,0-1.13-.48q-1.45,0-2.61,2a7.93,7.93,0,0,0-1.19,4,2,2,0,0,0,.46,1.45,1.52,1.52,0,0,0,1.16.49q1.36,0,2.55-2a8,8,0,0,0,1.19-4.14" transform="translate(-31.74)"/><path class="cls-1" d="M240,43.75l-.17.64H238.4l-1.06,4.21a25,25,0,0,1-1.45,4.35,7.43,7.43,0,0,1-2.18,2.9,3.06,3.06,0,0,1-1.77.62,1.45,1.45,0,0,1-1-.35.77.77,0,0,1-.3-.62.71.71,0,0,1,.25-.54.86.86,0,0,1,.6-.23.62.62,0,0,1,.44.16.51.51,0,0,1,.17.38.52.52,0,0,1-.2.39c-.1.09-.16.16-.16.2a.16.16,0,0,0,0,.13.44.44,0,0,0,.26,0,1.77,1.77,0,0,0,.87-.26,2.54,2.54,0,0,0,.81-.77,5.92,5.92,0,0,0,.67-1.45q.13-.41.73-2.67l1.67-6.52h-1.67l.13-.64a3.8,3.8,0,0,0,1.12-.12,1.34,1.34,0,0,0,.58-.42,6.34,6.34,0,0,0,.68-1.18,9.52,9.52,0,0,1,1.09-1.79,5.27,5.27,0,0,1,1.45-1.29,3.11,3.11,0,0,1,1.45-.42,1.77,1.77,0,0,1,1.18.36,1.06,1.06,0,0,1,.45.8.8.8,0,0,1-.22.57.75.75,0,0,1-.57.23.7.7,0,0,1-.49-.17.54.54,0,0,1-.19-.42.81.81,0,0,1,.13-.38.86.86,0,0,0,.12-.3.25.25,0,0,0-.09-.2.58.58,0,0,0-.36-.1,1.7,1.7,0,0,0-1.09.39,4.35,4.35,0,0,0-1.16,1.6q-.26.57-1,2.82Z" transform="translate(-31.74)"/><path class="cls-2" d="M31.74,0V5.8a89.57,89.57,0,0,1,37,13.62v-.86A103.33,103.33,0,0,0,31.74,0" transform="translate(-31.74)"/><path class="cls-3" d="M40.93,22.7A21.19,21.19,0,0,1,50.16,21a27.07,27.07,0,0,1,11.38,2.38A29.16,29.16,0,0,1,68.8,28V23.63A89.57,89.57,0,0,0,31.74,10V27.91a30.28,30.28,0,0,1,9.17-5.21" transform="translate(-31.74)"/><polygon class="cls-3" points="18.54 25.3 2.96 32.44 34.29 32.44 18.54 25.3"/><path class="cls-4" d="M31.74,74.3a103.41,103.41,0,0,0,37,18.59V87.08a89.62,89.62,0,0,1-37-13.64Z" transform="translate(-31.74)"/><path class="cls-3" d="M36.77,71.66V39.19a5.07,5.07,0,0,1,5.33-3.73V74.58a26.37,26.37,0,0,1-5.34-2.9" transform="translate(-31.74)"/><path class="cls-3" d="M47.46,76.74V39.19a5.07,5.07,0,0,1,5.34-3.7V78.8a33.66,33.66,0,0,1-5.34-2.06" transform="translate(-31.74)"/><path class="cls-3" d="M58.06,80.28V39.19a5.07,5.07,0,0,1,5.34-3.7v46a37.09,37.09,0,0,1-5.34-1.22" transform="translate(-31.74)"/></svg>